<?xml version="1.0" encoding="utf-8"?>
<!-- Generator: Adobe Illustrator 16.0.0, SVG Export Plug-In . SVG Version: 6.00 Build 0)  -->
<!DOCTYPE svg PUBLIC "-//W3C//DTD SVG 1.1//EN" "http://www.w3.org/Graphics/SVG/1.1/DTD/svg11.dtd">
<svg version="1.1" id="Layer_1" xmlns="http://www.w3.org/2000/svg" xmlns:xlink="http://www.w3.org/1999/xlink" x="0px" y="0px"
	 width="61.63px" height="54.39px" viewBox="0 0 61.63 54.39" enable-background="new 0 0 61.63 54.39" xml:space="preserve">
<g>
	<g>
		<path fill="#FFFFFF" d="M18.526,54.39c-2.2,0-4.9-1.559-6-3.464L0.825,30.66c-1.1-1.905-1.1-5.023,0-6.929L12.526,3.464
			c1.1-1.905,3.8-3.464,6-3.464h23.403c2.2,0,4.899,1.559,6,3.464L59.63,23.731c1.101,1.905,1.101,5.023,0,6.929L47.929,50.926
			c-1.101,1.905-3.8,3.464-6,3.464H18.526z"/>
	</g>
	<g>
		<circle fill="#C82027" cx="54.651" cy="12.227" r="6.979"/>
		<g>
			<path fill="#FFFFFF" d="M52.323,14.366l2.729-2.679c0.22-0.214,0.395-0.429,0.523-0.645c0.131-0.216,0.195-0.465,0.195-0.745
				c0-0.333-0.107-0.598-0.324-0.794c-0.217-0.196-0.485-0.295-0.805-0.295c-0.34,0-0.613,0.115-0.82,0.345
				s-0.332,0.519-0.379,0.864l-1.17-0.18c0.033-0.293,0.116-0.563,0.25-0.81c0.133-0.246,0.303-0.459,0.51-0.64
				s0.448-0.321,0.725-0.425c0.277-0.103,0.578-0.154,0.904-0.154c0.307,0,0.602,0.043,0.885,0.129s0.535,0.218,0.755,0.395
				s0.395,0.393,0.524,0.649c0.131,0.257,0.195,0.555,0.195,0.895c0,0.227-0.03,0.438-0.09,0.634
				c-0.061,0.197-0.143,0.382-0.245,0.555c-0.104,0.173-0.224,0.338-0.36,0.494c-0.137,0.157-0.284,0.309-0.444,0.455l-2.038,1.949
				h3.188v1.099h-4.707V14.366z"/>
		</g>
	</g>
	<g>
		<path d="M38.016,26.957c0-0.892,0-8.263-0.06-8.382h-0.119c-0.237,0.417-3.983,9.096-4.339,9.868
			c-0.447,0.951-3.479,7.967-3.627,8.264c-0.119,0.238-0.357,0.654-0.654,0.654c-0.179,0-0.357-0.179-0.476-0.535
			c-0.119-0.179-3.983-9.452-4.162-9.928c-0.535-1.368-3.27-8.026-3.626-8.382c-0.119,0.416-0.148,7.907-0.148,8.263
			s-0.03,5.41,0.148,7.342c0.119,1.367,0.476,2.497,1.427,2.497h1.308c0.178,0,0.238,0.118,0.238,0.208v0.743
			c0,0.118-0.06,0.237-0.297,0.237c-0.297,0-1.129-0.089-3.389-0.089c-2.556,0-3.567,0.089-3.864,0.089
			c-0.238,0-0.238-0.059-0.238-0.268v-0.742c0-0.061,0-0.179,0.179-0.179h1.367c1.011,0,1.337-1.07,1.486-2.11
			c0.268-2.081,0.446-9.393,0.446-9.928v-5.083c0-1.07-0.149-1.724-1.457-1.724h-1.308c-0.179,0-0.238-0.119-0.238-0.208v-0.803
			c0-0.06,0.06-0.178,0.238-0.178c0.297,0,1.07,0.089,4.221,0.089c1.427,0,2.259-0.089,2.616-0.089c0.356,0,0.564,0.119,0.713,0.505
			c1.07,2.794,5.231,12.663,6.123,15.1c0.268-0.535,2.377-5.44,3.151-7.193c0.535-1.249,3.21-7.372,3.359-7.966
			c0.088-0.297,0.445-0.357,1.158-0.357c4.34,0.03,5.351-0.089,5.707-0.089c0.119,0,0.179,0.119,0.179,0.268v0.624
			c0,0.178-0.06,0.297-0.237,0.297h-1.309c-0.772,0-0.832,0.535-0.861,1.159c-0.03,0.654-0.03,6.599-0.03,7.372v2.081
			c0,1.783,0.06,6.123,0.06,6.628c0.029,1.13,0.297,1.605,0.832,1.605h1.605c0.178,0,0.178,0.118,0.178,0.208v0.684
			c0,0.178,0,0.297-0.237,0.297c-0.356,0-1.784-0.089-4.399-0.089c-2.912,0-4.043,0.089-4.459,0.089
			c-0.178,0-0.237-0.119-0.237-0.268v-0.684c0-0.178,0.06-0.237,0.237-0.237h1.844c0.535,0,0.772-0.179,0.861-1.04
			c0.03-0.298,0.09-4.578,0.09-6.956V26.957z"/>
	</g>
</g>
</svg>
